# xmcd
#
# Track frame offsets: 
#        150
#        11920
#        16203
#        32712
#        38793
#        48786
#        58123
#        71069
#        87397
#        96347
#        105855
#        120734
#        133800
#        146701
#        157216
#        164842
#        179816
#
# Disc length: 2525 seconds
#
# Revision: 1
# Processed by: cddbd v1.5.1PL0 Copyright (c) Steve Scherf et al.
# Submitted via: ExactAudioCopy v0.95b2
#
DISCID=f909db11
DTITLE=Harmonica Frank Floyd - The Missing Link
DYEAR=2002
DGENRE=Country
TTITLE0=Rocking Chair Daddy
TTITLE1=Intro - No Grand Opera
TTITLE2=Swamp Root
TTITLE3=Married Man's Blues
TTITLE4=Moonshiner's Daughter
TTITLE5=Shoop-a-boop-a-doodler
TTITLE6=What Are You Squawkin About
TTITLE7=Howlin' Tomcat
TTITLE8=Deep Elum Blues
TTITLE9=Sitting On Top Of the World
TTITLE10=Step It Up and Go
TTITLE11=From Memphis To New Orleans
TTITLE12=The Great Medical Menagerist
TTITLE13=It Ain't Gonna Rain No Mo
TTITLE14=Without My Teeth
TTITLE15=Sweet Farm Girl
TTITLE16=You Don't Know My Mind
EXTD=
EXTT0=
EXTT1=
EXTT2=
EXTT3=
EXTT4=
EXTT5=
EXTT6=
EXTT7=
EXTT8=
EXTT9=
EXTT10=
EXTT11=
EXTT12=
EXTT13=
EXTT14=
EXTT15=
EXTT16=
PLAYORDER=
